<svg width="512" height="512" viewBox="0 0 512 512" fill="none" xmlns="http://www.w3.org/2000/svg">
<path fill-rule="evenodd" clip-rule="evenodd" d="M256.447 20.438C390.343 20.438 498.882 129.098 498.882 263.143C498.882 397.187 390.343 505.847 256.447 505.847C122.55 505.847 14 397.187 14 263.143C14 129.098 122.55 20.438 256.447 20.438Z" fill="white"/>
<path d="M256.878 487.809C380.523 487.809 480.757 387.336 480.757 263.396C480.757 139.456 380.523 38.9829 256.878 38.9829C133.232 38.9829 32.9979 139.456 32.9979 263.396C32.9979 387.336 133.232 487.809 256.878 487.809Z" fill="#263955"/>
<path d="M256.345 153.055C295.499 153.055 327.24 120.359 327.24 80.0274C327.24 39.6955 295.499 7 256.345 7C217.19 7 185.449 39.6955 185.449 80.0274C185.449 120.359 217.19 153.055 256.345 153.055Z" fill="white"/>
<path d="M256.345 135.997C286.667 135.997 311.248 110.939 311.248 80.0273C311.248 49.116 286.667 24.0574 256.345 24.0574C226.022 24.0574 201.441 49.116 201.441 80.0273C201.441 110.939 226.022 135.997 256.345 135.997Z" fill="#263955"/>
<path d="M256.345 478.214C347.901 478.214 422.122 403.992 422.122 312.436C422.122 220.879 347.901 146.658 256.345 146.658C164.788 146.658 90.5669 220.879 90.5669 312.436C90.5669 403.992 164.788 478.214 256.345 478.214Z" fill="white"/>
<path fill-rule="evenodd" clip-rule="evenodd" d="M248.805 155.758C231.085 158.243 219.11 166.364 212.165 175.578C202.566 188.278 204.885 203.244 204.885 219.878L204.874 419.545C204.827 437.123 208.254 446.418 220.148 456.023C245.275 476.304 284.257 470.931 301.469 448.224C311.229 435.34 308.864 420.604 308.864 403.969L308.876 204.303C308.933 187.312 304.677 176.66 293.844 167.629C284.799 160.106 267.609 153.112 248.805 155.758Z" fill="#263955" stroke="#3A4E6E" stroke-width="0.0665844" stroke-miterlimit="22.9256"/>
</svg>
