<svg width="243" height="75" viewBox="0 0 243 75" fill="none" xmlns="http://www.w3.org/2000/svg">
<g clip-path="url(#clip0_103_2488)">
<path fill-rule="evenodd" clip-rule="evenodd" d="M21.23 1.14478C32.9548 1.14478 42.4591 10.5142 42.4591 22.0726C42.4591 33.6309 32.9548 43.0004 21.23 43.0004C9.50531 43.0004 0 33.6309 0 22.0726C0 10.5142 9.50531 1.14478 21.23 1.14478Z" fill="#2F4361"/>
<path d="M21.23 41.4003C32.0581 41.4003 40.836 32.7469 40.836 22.0725C40.836 11.398 32.0581 2.74463 21.23 2.74463C10.4019 2.74463 1.62395 11.398 1.62395 22.0725C1.62395 32.7469 10.4019 41.4003 21.23 41.4003Z" fill="#D9E3F3"/>
<path d="M21.1999 12.5515C24.6162 12.5515 27.3857 9.74176 27.3857 6.27576C27.3857 2.80975 24.6162 0 21.1999 0C17.7836 0 15.0142 2.80975 15.0142 6.27576C15.0142 9.74176 17.7836 12.5515 21.1999 12.5515Z" fill="#2F4361"/>
<path d="M21.1998 11.1315C23.8427 11.1315 25.9852 8.9576 25.9852 6.27596C25.9852 3.59431 23.8427 1.42041 21.1998 1.42041C18.5569 1.42041 16.4144 3.59431 16.4144 6.27596C16.4144 8.9576 18.5569 11.1315 21.1998 11.1315Z" fill="#D9E3F3"/>
<path d="M21.23 40.6593C29.2416 40.6593 35.7363 34.2567 35.7363 26.3588C35.7363 18.4609 29.2416 12.0583 21.23 12.0583C13.2184 12.0583 6.7237 18.4609 6.7237 26.3588C6.7237 34.2567 13.2184 40.6593 21.23 40.6593Z" fill="#2F4260"/>
<path fill-rule="evenodd" clip-rule="evenodd" d="M20.5681 12.7724C19.0207 12.9869 17.9749 13.6881 17.3684 14.4836C16.5302 15.5801 16.7327 16.8722 16.7327 18.3083L16.7317 35.5465C16.7277 37.064 17.0269 37.8665 18.0656 38.6958C20.2598 40.4468 23.664 39.9829 25.1671 38.0225C26.0194 36.9101 25.8129 35.6379 25.8129 34.2018L25.8139 16.9635C25.8189 15.4967 25.4472 14.577 24.5012 13.7974C23.7114 13.1478 22.2102 12.544 20.5681 12.7724Z" fill="#D9E3F3"/>
<path d="M74.6462 37.182H58.9229C55.3243 37.182 52.3473 36.0031 49.9929 33.6463C47.6374 31.2886 46.4597 28.3121 46.4597 24.7169C46.4597 21.1455 47.6253 18.2643 49.9566 16.0734C52.2868 13.8835 55.2759 12.7881 58.9229 12.7881H72.8711V17.0378H58.9229C56.5564 17.0378 54.606 17.7886 53.0716 19.2883C51.5383 20.7879 50.7716 22.7166 50.7716 25.0744C50.7716 27.4073 51.5383 29.3003 53.0716 30.7533C54.606 32.2053 56.5564 32.9313 58.9229 32.9313H70.3353V27.6099H58.5975V23.7168H74.6462V37.182ZM110.369 37.182L104.826 37.1462L100.66 30.3242H88.9208L91.5301 26.1103H98.0876L93.7757 19.0737L82.6172 37.1462H77.0742L90.5156 15.1091C90.8531 14.538 91.3246 14.0146 91.928 13.5379C92.6524 12.9907 93.3052 12.7166 93.8845 12.7166C94.5122 12.7166 95.165 12.9787 95.841 13.5021C96.4203 13.955 96.8918 14.4903 97.2544 15.1091L110.369 37.182ZM127.687 17.0378H117.941V37.182H113.666V17.0378H103.884V12.7881H127.687V17.0378ZM150.874 26.9316H136.745V22.6809H150.874V26.9316ZM151.997 37.182H130.621V12.7881H151.997V17.0378H134.933V32.9313H151.997V37.182ZM198.081 12.7881L185.328 35.1818C184.434 36.7768 183.541 37.5743 182.647 37.5743C181.753 37.5743 180.86 36.7768 179.966 35.1818L176.488 28.9318L172.937 35.1818C172.044 36.7768 171.15 37.5743 170.256 37.5743C169.363 37.5743 168.469 36.7768 167.576 35.1818L155.149 12.7881H160.692L170.365 30.5388L173.843 24.1458L167.539 12.7881H173.082L182.756 30.5388L192.538 12.7881H198.081ZM222.028 37.182L216.485 37.1462L212.32 30.3242H200.581L203.189 26.1103H209.746L205.436 19.0737L194.277 37.1462H188.734L202.174 15.1091C202.513 14.538 202.984 14.0146 203.588 13.5379C204.312 12.9907 204.964 12.7166 205.544 12.7166C206.172 12.7166 206.824 12.9787 207.501 13.5021C208.08 13.955 208.552 14.4903 208.913 15.1091L222.028 37.182ZM242.39 12.7881L230.108 29.1096V37.182H225.832V29.0381L213.225 12.7881H218.768L228.079 24.7884L236.811 12.7881H242.39Z" fill="#D9E3F3"/>
</g>
<defs>
<clipPath id="clip0_103_2488">
<rect width="242.39" height="75.0003" fill="white"/>
</clipPath>
</defs>
</svg>
