<svg width="183" height="30" viewBox="0 0 183 30" fill="none" xmlns="http://www.w3.org/2000/svg">
<path d="M14.6494 29.5828C22.2768 29.5828 28.46 23.3997 28.46 15.7723C28.46 8.14493 22.2768 1.96173 14.6494 1.96173C7.02206 1.96173 0.838867 8.14493 0.838867 15.7723C0.838867 23.3997 7.02206 29.5828 14.6494 29.5828Z" fill="#2F4361"/>
<path d="M14.6284 8.96893C17.0346 8.96893 18.9852 6.96116 18.9852 4.48446C18.9852 2.00776 17.0346 0 14.6284 0C12.2222 0 10.2715 2.00776 10.2715 4.48446C10.2715 6.96116 12.2222 8.96893 14.6284 8.96893Z" fill="#ECEEF8"/>
<path d="M14.6284 7.95423C16.4901 7.95423 17.9993 6.40076 17.9993 4.48447C17.9993 2.56817 16.4901 1.01471 14.6284 1.01471C12.7667 1.01471 11.2574 2.56817 11.2574 4.48447C11.2574 6.40076 12.7667 7.95423 14.6284 7.95423Z" fill="#2F4361"/>
<path d="M14.6494 29.0537C20.293 29.0537 24.868 24.4787 24.868 18.8351C24.868 13.1915 20.293 8.61646 14.6494 8.61646C9.00582 8.61646 4.43079 13.1915 4.43079 18.8351C4.43079 24.4787 9.00582 29.0537 14.6494 29.0537Z" fill="#F0F1F9"/>
<path fill-rule="evenodd" clip-rule="evenodd" d="M14.1833 9.12608C13.0931 9.28015 12.357 9.78128 11.9298 10.3493C11.3392 11.1329 11.4816 12.0558 11.4816 13.0822L11.4808 25.3995C11.4777 26.485 11.6886 27.0577 12.42 27.6499C13.9662 28.9011 16.3637 28.5704 17.4227 27.169C18.0234 26.3737 17.8779 25.4648 17.8779 24.4392L17.8787 12.1219C17.8818 11.073 17.6196 10.4162 16.9535 9.85909C16.3979 9.39454 15.3396 8.96344 14.1833 9.12608Z" fill="#2F4361" stroke="white" stroke-width="0.0700332" stroke-miterlimit="22.9256"/>
<path fill-rule="evenodd" clip-rule="evenodd" d="M14.1918 9.16502C13.0962 9.31831 12.3562 9.81944 11.9266 10.3875C11.3337 11.1719 11.4769 12.0947 11.4769 13.1211L11.4761 25.4384C11.473 26.5231 11.6846 27.0966 12.42 27.6888C13.9732 28.9401 16.3823 28.6086 17.446 27.2071C18.0499 26.4126 17.9036 25.5038 17.9036 24.4782V12.1601C17.9075 11.1119 17.6437 10.4552 16.9745 9.89803C16.4158 9.43348 15.3528 9.00238 14.1918 9.16502Z" stroke="white" stroke-width="0.0700332" stroke-miterlimit="22.9256"/>
<path d="M53.4354 28.3145H41.2908C38.5113 28.3145 36.2119 27.3916 34.3933 25.5443C32.574 23.6977 31.6652 21.3656 31.6652 18.5487C31.6652 15.7505 32.5655 13.4931 34.3653 11.7773C36.1652 10.0607 38.4739 9.2024 41.2908 9.2024H52.0643V12.5329H41.2908C39.463 12.5329 37.9565 13.1204 36.7721 14.2954C35.587 15.4712 34.9949 16.9815 34.9949 18.8289C34.9949 20.6567 35.587 22.1399 36.7721 23.2783C37.9565 24.416 39.463 24.9848 41.2908 24.9848H50.1057V20.8155H41.0395V17.7651H53.4354V28.3145ZM81.0262 28.3145L76.7448 28.2872L73.5271 22.9422H64.4602L66.4756 19.6405H71.5398L68.2101 14.1281L59.5913 28.2872H55.3099L65.692 11.0217C65.9527 10.5743 66.3168 10.1634 66.7829 9.79068C67.3424 9.36115 67.8467 9.14716 68.2941 9.14716C68.7789 9.14716 69.2831 9.35181 69.8053 9.76267C70.2527 10.1167 70.6169 10.5369 70.8962 11.0217L81.0262 28.3145ZM94.4017 12.5329H86.8747V28.3145H83.573V12.5329H76.0172V9.2024H94.4017V12.5329ZM112.311 20.284H101.397V16.9543H112.311V20.284ZM113.178 28.3145H96.6685V9.2024H113.178V12.5329H99.9982V24.9848H113.178V28.3145ZM148.772 9.2024L138.922 26.7481C138.232 27.9978 137.541 28.6226 136.851 28.6226C136.161 28.6226 135.471 27.9978 134.781 26.7481L132.094 21.8512L129.352 26.7481C128.662 27.9978 127.972 28.6226 127.282 28.6226C126.591 28.6226 125.901 27.9978 125.211 26.7481L115.612 9.2024H119.894L127.366 23.1102L130.052 18.1013L125.183 9.2024H129.463L136.935 23.1102L144.49 9.2024H148.772ZM167.268 28.3145L162.987 28.2872L159.769 22.9422H150.702L152.718 19.6405H157.782L154.452 14.1281L145.833 28.2872H141.552L151.934 11.0217C152.195 10.5743 152.559 10.1634 153.025 9.79068C153.584 9.36115 154.089 9.14716 154.536 9.14716C155.021 9.14716 155.525 9.35181 156.047 9.76267C156.495 10.1167 156.859 10.5369 157.138 11.0217L167.268 28.3145ZM182.995 9.2024L173.508 21.9905V28.3145H170.206V21.9345L160.469 9.2024H164.75L171.941 18.6048L178.685 9.2024H182.995Z" fill="#2F4361"/>
</svg>
